<svg width="3415" height="1936" viewBox="0 0 3415 1936" fill="none" xmlns="http://www.w3.org/2000/svg">
<rect width="3415" height="1936" rx="20" fill="#5A5A5A"/>
<rect width="393" height="852" transform="translate(212 881)" fill="white"/>
<rect x="212" y="881" width="393" height="95" fill="#5B00A3"/>
<g clip-path="url(#clip0_1_197)">
<path d="M237.375 937.25H263.625V934.333H237.375V937.25ZM237.375 929.958H263.625V927.042H237.375V929.958ZM237.375 919.75V922.667H263.625V919.75H237.375Z" fill="white"/>
</g>
<path d="M338.574 925.656H334.841C334.773 925.173 334.634 924.744 334.423 924.369C334.213 923.989 333.943 923.665 333.614 923.398C333.284 923.131 332.903 922.926 332.472 922.784C332.045 922.642 331.582 922.571 331.082 922.571C330.179 922.571 329.392 922.795 328.722 923.244C328.051 923.687 327.531 924.335 327.162 925.188C326.793 926.034 326.608 927.062 326.608 928.273C326.608 929.517 326.793 930.562 327.162 931.409C327.537 932.256 328.06 932.895 328.73 933.327C329.401 933.759 330.176 933.974 331.057 933.974C331.551 933.974 332.009 933.909 332.429 933.778C332.855 933.648 333.233 933.457 333.562 933.207C333.892 932.952 334.165 932.642 334.381 932.278C334.602 931.915 334.756 931.5 334.841 931.034L338.574 931.051C338.477 931.852 338.236 932.625 337.849 933.369C337.469 934.108 336.955 934.77 336.307 935.355C335.665 935.935 334.898 936.395 334.006 936.736C333.119 937.071 332.116 937.239 330.997 937.239C329.44 937.239 328.048 936.886 326.821 936.182C325.599 935.477 324.634 934.457 323.923 933.122C323.219 931.787 322.866 930.17 322.866 928.273C322.866 926.369 323.224 924.75 323.94 923.415C324.656 922.08 325.628 921.062 326.855 920.364C328.082 919.659 329.463 919.307 330.997 919.307C332.009 919.307 332.946 919.449 333.81 919.733C334.679 920.017 335.449 920.432 336.119 920.977C336.79 921.517 337.335 922.179 337.756 922.963C338.182 923.747 338.455 924.645 338.574 925.656ZM350.689 924.565C350.621 923.878 350.328 923.344 349.811 922.963C349.294 922.582 348.592 922.392 347.706 922.392C347.104 922.392 346.595 922.477 346.18 922.648C345.766 922.812 345.447 923.043 345.226 923.338C345.01 923.634 344.902 923.969 344.902 924.344C344.891 924.656 344.956 924.929 345.098 925.162C345.246 925.395 345.447 925.597 345.703 925.767C345.959 925.932 346.254 926.077 346.589 926.202C346.925 926.321 347.283 926.423 347.663 926.509L349.232 926.884C349.993 927.054 350.692 927.281 351.328 927.565C351.964 927.849 352.516 928.199 352.982 928.614C353.447 929.028 353.808 929.517 354.064 930.08C354.325 930.642 354.459 931.287 354.464 932.014C354.459 933.082 354.186 934.009 353.646 934.793C353.112 935.571 352.339 936.176 351.328 936.608C350.322 937.034 349.109 937.247 347.689 937.247C346.28 937.247 345.053 937.031 344.007 936.599C342.967 936.168 342.155 935.528 341.57 934.682C340.99 933.83 340.686 932.776 340.658 931.52H344.229C344.268 932.105 344.436 932.594 344.732 932.986C345.033 933.372 345.433 933.665 345.933 933.864C346.439 934.057 347.01 934.153 347.646 934.153C348.271 934.153 348.814 934.062 349.274 933.881C349.74 933.699 350.101 933.446 350.357 933.122C350.612 932.798 350.74 932.426 350.74 932.006C350.74 931.614 350.624 931.284 350.391 931.017C350.163 930.75 349.828 930.523 349.385 930.335C348.947 930.148 348.411 929.977 347.774 929.824L345.874 929.347C344.402 928.989 343.24 928.429 342.388 927.668C341.536 926.906 341.112 925.881 341.118 924.591C341.112 923.534 341.393 922.611 341.962 921.821C342.536 921.031 343.322 920.415 344.322 919.972C345.322 919.528 346.459 919.307 347.732 919.307C349.027 919.307 350.158 919.528 351.124 919.972C352.095 920.415 352.851 921.031 353.391 921.821C353.93 922.611 354.209 923.526 354.226 924.565H350.689ZM363.134 937H356.947V919.545H363.185C364.941 919.545 366.452 919.895 367.719 920.594C368.987 921.287 369.961 922.284 370.643 923.585C371.33 924.886 371.674 926.443 371.674 928.256C371.674 930.074 371.33 931.636 370.643 932.943C369.961 934.25 368.981 935.253 367.702 935.952C366.43 936.651 364.907 937 363.134 937ZM360.637 933.838H362.981C364.072 933.838 364.989 933.645 365.734 933.259C366.484 932.866 367.046 932.261 367.421 931.443C367.802 930.619 367.992 929.557 367.992 928.256C367.992 926.966 367.802 925.912 367.421 925.094C367.046 924.276 366.487 923.673 365.742 923.287C364.998 922.901 364.08 922.707 362.989 922.707H360.637V933.838ZM374.305 937V934.341L380.518 928.588C381.047 928.077 381.49 927.616 381.848 927.207C382.212 926.798 382.487 926.398 382.675 926.006C382.862 925.608 382.956 925.179 382.956 924.719C382.956 924.207 382.839 923.767 382.607 923.398C382.374 923.023 382.055 922.736 381.652 922.537C381.249 922.332 380.791 922.23 380.28 922.23C379.746 922.23 379.28 922.338 378.882 922.554C378.484 922.77 378.178 923.08 377.962 923.483C377.746 923.886 377.638 924.366 377.638 924.923H374.135C374.135 923.781 374.393 922.79 374.911 921.949C375.428 921.108 376.152 920.457 377.084 919.997C378.016 919.537 379.089 919.307 380.305 919.307C381.555 919.307 382.643 919.528 383.57 919.972C384.501 920.409 385.226 921.017 385.743 921.795C386.26 922.574 386.518 923.466 386.518 924.472C386.518 925.131 386.388 925.781 386.126 926.423C385.871 927.065 385.413 927.778 384.754 928.562C384.095 929.341 383.166 930.276 381.967 931.366L379.419 933.864V933.983H386.749V937H374.305ZM396.266 937.384C394.8 937.378 393.539 937.017 392.482 936.301C391.431 935.585 390.621 934.548 390.053 933.19C389.491 931.832 389.212 930.199 389.218 928.29C389.218 926.386 389.499 924.764 390.062 923.423C390.63 922.082 391.44 921.062 392.491 920.364C393.548 919.659 394.806 919.307 396.266 919.307C397.727 919.307 398.982 919.659 400.033 920.364C401.09 921.068 401.903 922.091 402.471 923.432C403.039 924.767 403.32 926.386 403.315 928.29C403.315 930.205 403.031 931.841 402.462 933.199C401.9 934.557 401.093 935.594 400.042 936.31C398.991 937.026 397.732 937.384 396.266 937.384ZM396.266 934.324C397.266 934.324 398.065 933.821 398.661 932.815C399.258 931.81 399.553 930.301 399.548 928.29C399.548 926.966 399.411 925.864 399.138 924.983C398.871 924.102 398.491 923.44 397.996 922.997C397.508 922.554 396.931 922.332 396.266 922.332C395.272 922.332 394.477 922.83 393.88 923.824C393.283 924.818 392.982 926.307 392.977 928.29C392.977 929.631 393.11 930.75 393.377 931.648C393.65 932.54 394.033 933.21 394.528 933.659C395.022 934.102 395.602 934.324 396.266 934.324ZM412.79 937.384C411.324 937.378 410.063 937.017 409.006 936.301C407.955 935.585 407.145 934.548 406.577 933.19C406.014 931.832 405.736 930.199 405.741 928.29C405.741 926.386 406.023 924.764 406.585 923.423C407.153 922.082 407.963 921.062 409.014 920.364C410.071 919.659 411.33 919.307 412.79 919.307C414.25 919.307 415.506 919.659 416.557 920.364C417.614 921.068 418.426 922.091 418.994 923.432C419.563 924.767 419.844 926.386 419.838 928.29C419.838 930.205 419.554 931.841 418.986 933.199C418.423 934.557 417.616 935.594 416.565 936.31C415.514 937.026 414.256 937.384 412.79 937.384ZM412.79 934.324C413.79 934.324 414.588 933.821 415.185 932.815C415.781 931.81 416.077 930.301 416.071 928.29C416.071 926.966 415.935 925.864 415.662 924.983C415.395 924.102 415.014 923.44 414.52 922.997C414.031 922.554 413.455 922.332 412.79 922.332C411.795 922.332 411 922.83 410.403 923.824C409.807 924.818 409.506 926.307 409.5 928.29C409.5 929.631 409.634 930.75 409.901 931.648C410.173 932.54 410.557 933.21 411.051 933.659C411.545 934.102 412.125 934.324 412.79 934.324ZM430.66 926.832V929.713H422.7V926.832H430.66ZM436.83 937H432.876L438.901 919.545H443.657L449.674 937H445.719L441.347 923.534H441.211L436.83 937ZM436.583 930.139H445.924V933.02H436.583V930.139ZM458.124 937.239C456.852 937.239 455.718 937.02 454.724 936.582C453.735 936.139 452.954 935.531 452.38 934.759C451.812 933.98 451.519 933.082 451.502 932.065H455.218C455.241 932.491 455.38 932.866 455.636 933.19C455.897 933.509 456.244 933.756 456.675 933.932C457.107 934.108 457.593 934.196 458.133 934.196C458.695 934.196 459.192 934.097 459.624 933.898C460.056 933.699 460.394 933.423 460.638 933.071C460.883 932.719 461.005 932.312 461.005 931.852C461.005 931.386 460.874 930.974 460.613 930.616C460.357 930.253 459.988 929.969 459.505 929.764C459.028 929.56 458.46 929.457 457.8 929.457H456.173V926.747H457.8C458.357 926.747 458.849 926.651 459.275 926.457C459.707 926.264 460.042 925.997 460.281 925.656C460.519 925.31 460.638 924.906 460.638 924.446C460.638 924.009 460.533 923.625 460.323 923.295C460.119 922.96 459.829 922.699 459.454 922.511C459.085 922.324 458.653 922.23 458.158 922.23C457.658 922.23 457.201 922.321 456.786 922.503C456.371 922.679 456.039 922.932 455.789 923.261C455.539 923.591 455.406 923.977 455.388 924.42H451.852C451.869 923.415 452.156 922.528 452.712 921.761C453.269 920.994 454.019 920.395 454.962 919.963C455.911 919.526 456.982 919.307 458.175 919.307C459.38 919.307 460.434 919.526 461.337 919.963C462.241 920.401 462.942 920.991 463.442 921.736C463.948 922.474 464.198 923.304 464.192 924.224C464.198 925.202 463.894 926.017 463.281 926.67C462.673 927.324 461.88 927.739 460.903 927.915V928.051C462.187 928.216 463.164 928.662 463.835 929.389C464.511 930.111 464.846 931.014 464.84 932.099C464.846 933.094 464.559 933.977 463.979 934.75C463.406 935.523 462.613 936.131 461.602 936.574C460.59 937.017 459.431 937.239 458.124 937.239ZM475.087 919.545V937H471.396V923.048H471.294L467.297 925.554V922.281L471.618 919.545H475.087ZM486.079 937.384C484.613 937.378 483.352 937.017 482.295 936.301C481.244 935.585 480.434 934.548 479.866 933.19C479.303 931.832 479.025 930.199 479.031 928.29C479.031 926.386 479.312 924.764 479.874 923.423C480.442 922.082 481.252 921.062 482.303 920.364C483.36 919.659 484.619 919.307 486.079 919.307C487.539 919.307 488.795 919.659 489.846 920.364C490.903 921.068 491.715 922.091 492.283 923.432C492.852 924.767 493.133 926.386 493.127 928.29C493.127 930.205 492.843 931.841 492.275 933.199C491.712 934.557 490.906 935.594 489.854 936.31C488.803 937.026 487.545 937.384 486.079 937.384ZM486.079 934.324C487.079 934.324 487.877 933.821 488.474 932.815C489.07 931.81 489.366 930.301 489.36 928.29C489.36 926.966 489.224 925.864 488.951 924.983C488.684 924.102 488.303 923.44 487.809 922.997C487.32 922.554 486.744 922.332 486.079 922.332C485.085 922.332 484.289 922.83 483.692 923.824C483.096 924.818 482.795 926.307 482.789 928.29C482.789 929.631 482.923 930.75 483.19 931.648C483.462 932.54 483.846 933.21 484.34 933.659C484.835 934.102 485.414 934.324 486.079 934.324Z" fill="white"/>
<rect x="356" y="949" width="104" height="18" rx="9" fill="#3F0072"/>
<path d="M366.866 953.273H369.142L371.545 959.136H371.647L374.051 953.273H376.326V962H374.536V956.32H374.464L372.205 961.957H370.987L368.728 956.298H368.656V962H366.866V953.273ZM380.77 962.128C380.108 962.128 379.535 961.987 379.052 961.706C378.572 961.422 378.202 961.027 377.94 960.521C377.679 960.013 377.548 959.423 377.548 958.753C377.548 958.077 377.679 957.486 377.94 956.98C378.202 956.472 378.572 956.077 379.052 955.795C379.535 955.511 380.108 955.369 380.77 955.369C381.432 955.369 382.003 955.511 382.483 955.795C382.966 956.077 383.338 956.472 383.599 956.98C383.861 957.486 383.991 958.077 383.991 958.753C383.991 959.423 383.861 960.013 383.599 960.521C383.338 961.027 382.966 961.422 382.483 961.706C382.003 961.987 381.432 962.128 380.77 962.128ZM380.778 960.722C381.079 960.722 381.331 960.636 381.532 960.466C381.734 960.293 381.886 960.057 381.988 959.759C382.094 959.46 382.146 959.121 382.146 958.74C382.146 958.359 382.094 958.02 381.988 957.722C381.886 957.423 381.734 957.187 381.532 957.014C381.331 956.841 381.079 956.754 380.778 956.754C380.474 956.754 380.219 956.841 380.011 957.014C379.807 957.187 379.652 957.423 379.547 957.722C379.444 958.02 379.393 958.359 379.393 958.74C379.393 959.121 379.444 959.46 379.547 959.759C379.652 960.057 379.807 960.293 380.011 960.466C380.219 960.636 380.474 960.722 380.778 960.722ZM387.584 962.107C387.086 962.107 386.636 961.979 386.233 961.723C385.832 961.464 385.514 961.085 385.278 960.585C385.045 960.082 384.929 959.466 384.929 958.736C384.929 957.986 385.05 957.362 385.291 956.865C385.532 956.365 385.854 955.991 386.254 955.744C386.657 955.494 387.099 955.369 387.579 955.369C387.946 955.369 388.251 955.432 388.496 955.557C388.743 955.679 388.942 955.832 389.092 956.017C389.246 956.199 389.362 956.378 389.442 956.554H389.497V953.273H391.308V962H389.518V960.952H389.442C389.356 961.134 389.236 961.314 389.079 961.493C388.926 961.669 388.726 961.815 388.479 961.932C388.234 962.048 387.936 962.107 387.584 962.107ZM388.159 960.662C388.452 960.662 388.699 960.582 388.9 960.423C389.105 960.261 389.261 960.036 389.369 959.746C389.48 959.456 389.535 959.116 389.535 958.727C389.535 958.338 389.481 958 389.373 957.713C389.265 957.426 389.109 957.205 388.905 957.048C388.7 956.892 388.452 956.814 388.159 956.814C387.861 956.814 387.609 956.895 387.405 957.057C387.2 957.219 387.045 957.443 386.94 957.73C386.835 958.017 386.782 958.349 386.782 958.727C386.782 959.108 386.835 959.445 386.94 959.737C387.048 960.027 387.203 960.254 387.405 960.419C387.609 960.581 387.861 960.662 388.159 960.662ZM396.998 959.213V955.455H398.813V962H397.07V960.811H397.002C396.855 961.195 396.609 961.503 396.265 961.736C395.924 961.969 395.508 962.085 395.017 962.085C394.579 962.085 394.194 961.986 393.862 961.787C393.529 961.588 393.269 961.305 393.082 960.939C392.897 960.572 392.803 960.134 392.801 959.622V955.455H394.616V959.298C394.619 959.685 394.722 959.99 394.927 960.214C395.132 960.439 395.406 960.551 395.749 960.551C395.968 960.551 396.173 960.501 396.363 960.402C396.553 960.3 396.707 960.149 396.823 959.95C396.943 959.751 397.001 959.506 396.998 959.213ZM402.081 953.273V962H400.265V953.273H402.081ZM406.518 962.128C405.845 962.128 405.265 961.991 404.779 961.719C404.296 961.443 403.924 961.054 403.663 960.551C403.401 960.045 403.271 959.447 403.271 958.757C403.271 958.084 403.401 957.493 403.663 956.984C403.924 956.476 404.292 956.08 404.767 955.795C405.244 955.511 405.803 955.369 406.445 955.369C406.877 955.369 407.279 955.439 407.651 955.578C408.026 955.714 408.353 955.92 408.632 956.196C408.913 956.472 409.132 956.818 409.288 957.236C409.444 957.651 409.522 958.136 409.522 958.693V959.192H403.995V958.067H407.813C407.813 957.805 407.757 957.574 407.643 957.372C407.529 957.17 407.372 957.013 407.17 956.899C406.971 956.783 406.74 956.724 406.475 956.724C406.2 956.724 405.955 956.788 405.742 956.916C405.532 957.041 405.367 957.21 405.248 957.423C405.129 957.634 405.068 957.868 405.065 958.126V959.196C405.065 959.52 405.124 959.8 405.244 960.036C405.366 960.271 405.538 960.453 405.759 960.581C405.981 960.709 406.244 960.773 406.548 960.773C406.749 960.773 406.934 960.744 407.102 960.688C407.269 960.631 407.413 960.545 407.532 960.432C407.651 960.318 407.742 960.179 407.805 960.014L409.484 960.125C409.399 960.528 409.224 960.881 408.96 961.182C408.698 961.48 408.36 961.713 407.945 961.881C407.534 962.045 407.058 962.128 406.518 962.128ZM417.264 953.273V962H415.419V955.024H415.368L413.369 956.277V954.641L415.53 953.273H417.264ZM422.76 962.192C422.027 962.189 421.396 962.009 420.868 961.651C420.343 961.293 419.938 960.774 419.654 960.095C419.372 959.416 419.233 958.599 419.236 957.645C419.236 956.693 419.377 955.882 419.658 955.212C419.942 954.541 420.347 954.031 420.872 953.682C421.401 953.33 422.03 953.153 422.76 953.153C423.49 953.153 424.118 953.33 424.644 953.682C425.172 954.034 425.578 954.545 425.862 955.216C426.146 955.884 426.287 956.693 426.284 957.645C426.284 958.602 426.142 959.42 425.858 960.099C425.577 960.778 425.173 961.297 424.648 961.655C424.122 962.013 423.493 962.192 422.76 962.192ZM422.76 960.662C423.26 960.662 423.659 960.411 423.958 959.908C424.256 959.405 424.404 958.651 424.401 957.645C424.401 956.983 424.333 956.432 424.196 955.991C424.063 955.551 423.872 955.22 423.625 954.999C423.381 954.777 423.093 954.666 422.76 954.666C422.263 954.666 421.865 954.915 421.567 955.412C421.269 955.909 421.118 956.653 421.115 957.645C421.115 958.315 421.182 958.875 421.316 959.324C421.452 959.77 421.644 960.105 421.891 960.33C422.138 960.551 422.428 960.662 422.76 960.662Z" fill="white"/>
<g clip-path="url(#clip1_1_197)">
<path d="M439 956L444 961L449 956H439Z" fill="white"/>
</g>
<rect x="236" y="991" width="345" height="45" rx="4" fill="#D9D9D9"/>
<rect x="236" y="1365" width="345" height="45" rx="4" fill="#D9D9D9"/>
<rect x="236" y="1051" width="345" height="293" rx="4" fill="#D9D9D9"/>
<rect x="236" y="1425" width="345" height="293" rx="4" fill="#D9D9D9"/>
<g clip-path="url(#clip2_1_197)">
<rect width="1440" height="960" transform="matrix(0 -1 1 0 664 1733)" fill="white"/>
<rect x="664" y="293" width="960" height="163" fill="#5B00A3"/>
<g clip-path="url(#clip3_1_197)">
<path d="M728.25 386.5H765.75V382.333H728.25V386.5ZM728.25 376.083H765.75V371.917H728.25V376.083ZM728.25 361.5V365.667H765.75V361.5H728.25Z" fill="white"/>
</g>
<path d="M1004.65 368.312H997.182C997.045 367.347 996.767 366.489 996.347 365.739C995.926 364.977 995.386 364.33 994.727 363.795C994.068 363.261 993.307 362.852 992.443 362.568C991.591 362.284 990.665 362.142 989.665 362.142C987.858 362.142 986.284 362.591 984.943 363.489C983.602 364.375 982.563 365.67 981.824 367.375C981.085 369.068 980.716 371.125 980.716 373.545C980.716 376.034 981.085 378.125 981.824 379.818C982.574 381.511 983.619 382.79 984.96 383.653C986.301 384.517 987.852 384.949 989.614 384.949C990.602 384.949 991.517 384.818 992.358 384.557C993.21 384.295 993.966 383.915 994.625 383.415C995.284 382.903 995.83 382.284 996.261 381.557C996.705 380.83 997.011 380 997.182 379.068L1004.65 379.102C1004.45 380.705 1003.97 382.25 1003.2 383.739C1002.44 385.216 1001.41 386.54 1000.11 387.71C998.83 388.869 997.295 389.79 995.511 390.472C993.739 391.142 991.733 391.477 989.494 391.477C986.381 391.477 983.597 390.773 981.142 389.364C978.699 387.955 976.767 385.915 975.347 383.244C973.938 380.574 973.233 377.341 973.233 373.545C973.233 369.739 973.949 366.5 975.381 363.83C976.813 361.159 978.756 359.125 981.21 357.727C983.665 356.318 986.426 355.614 989.494 355.614C991.517 355.614 993.392 355.898 995.119 356.466C996.858 357.034 998.398 357.864 999.739 358.955C1001.08 360.034 1002.17 361.358 1003.01 362.926C1003.86 364.494 1004.41 366.29 1004.65 368.312ZM1028.88 366.131C1028.74 364.756 1028.16 363.687 1027.12 362.926C1026.09 362.165 1024.68 361.784 1022.91 361.784C1021.71 361.784 1020.69 361.955 1019.86 362.295C1019.03 362.625 1018.39 363.085 1017.95 363.676C1017.52 364.267 1017.3 364.938 1017.3 365.688C1017.28 366.312 1017.41 366.858 1017.7 367.324C1017.99 367.79 1018.39 368.193 1018.91 368.534C1019.42 368.864 1020.01 369.153 1020.68 369.403C1021.35 369.642 1022.07 369.847 1022.83 370.017L1025.96 370.767C1027.49 371.108 1028.88 371.562 1030.16 372.131C1031.43 372.699 1032.53 373.398 1033.46 374.227C1034.39 375.057 1035.12 376.034 1035.63 377.159C1036.15 378.284 1036.42 379.574 1036.43 381.028C1036.42 383.165 1035.87 385.017 1034.79 386.585C1033.72 388.142 1032.18 389.352 1030.16 390.216C1028.14 391.068 1025.72 391.494 1022.88 391.494C1020.06 391.494 1017.61 391.062 1015.51 390.199C1013.43 389.335 1011.81 388.057 1010.64 386.364C1009.48 384.659 1008.87 382.551 1008.82 380.04H1015.96C1016.04 381.21 1016.37 382.187 1016.96 382.972C1017.57 383.744 1018.37 384.33 1019.37 384.727C1020.38 385.114 1021.52 385.307 1022.79 385.307C1024.04 385.307 1025.13 385.125 1026.05 384.761C1026.98 384.398 1027.7 383.892 1028.21 383.244C1028.72 382.597 1028.98 381.852 1028.98 381.011C1028.98 380.227 1028.75 379.568 1028.28 379.034C1027.83 378.5 1027.16 378.045 1026.27 377.67C1025.39 377.295 1024.32 376.955 1023.05 376.648L1019.25 375.693C1016.3 374.977 1013.98 373.858 1012.28 372.335C1010.57 370.812 1009.72 368.761 1009.74 366.182C1009.72 364.068 1010.29 362.222 1011.42 360.642C1012.57 359.062 1014.14 357.83 1016.14 356.943C1018.14 356.057 1020.42 355.614 1022.96 355.614C1025.55 355.614 1027.82 356.057 1029.75 356.943C1031.69 357.83 1033.2 359.062 1034.28 360.642C1035.36 362.222 1035.92 364.051 1035.95 366.131H1028.88ZM1053.77 391H1041.39V356.091H1053.87C1057.38 356.091 1060.4 356.79 1062.94 358.188C1065.47 359.574 1067.42 361.568 1068.79 364.17C1070.16 366.773 1070.85 369.886 1070.85 373.511C1070.85 377.148 1070.16 380.273 1068.79 382.886C1067.42 385.5 1065.46 387.506 1062.9 388.903C1060.36 390.301 1057.31 391 1053.77 391ZM1048.77 384.676H1053.46C1055.64 384.676 1057.48 384.29 1058.97 383.517C1060.47 382.733 1061.59 381.523 1062.34 379.886C1063.1 378.239 1063.48 376.114 1063.48 373.511C1063.48 370.932 1063.1 368.824 1062.34 367.188C1061.59 365.551 1060.47 364.347 1058.98 363.574C1057.5 362.801 1055.66 362.415 1053.48 362.415H1048.77V384.676ZM1076.11 391V385.682L1088.54 374.176C1089.59 373.153 1090.48 372.233 1091.2 371.415C1091.92 370.597 1092.47 369.795 1092.85 369.011C1093.22 368.216 1093.41 367.358 1093.41 366.438C1093.41 365.415 1093.18 364.534 1092.71 363.795C1092.25 363.045 1091.61 362.472 1090.8 362.074C1090 361.665 1089.08 361.46 1088.06 361.46C1086.99 361.46 1086.06 361.676 1085.26 362.108C1084.47 362.54 1083.86 363.159 1083.42 363.966C1082.99 364.773 1082.78 365.733 1082.78 366.847H1075.77C1075.77 364.562 1076.29 362.58 1077.32 360.898C1078.36 359.216 1079.8 357.915 1081.67 356.994C1083.53 356.074 1085.68 355.614 1088.11 355.614C1090.61 355.614 1092.79 356.057 1094.64 356.943C1096.5 357.818 1097.95 359.034 1098.99 360.591C1100.02 362.148 1100.54 363.932 1100.54 365.943C1100.54 367.261 1100.28 368.562 1099.75 369.847C1099.24 371.131 1098.33 372.557 1097.01 374.125C1095.69 375.682 1093.83 377.551 1091.43 379.733L1086.34 384.727V384.966H1101V391H1076.11ZM1120.03 391.767C1117.1 391.756 1114.58 391.034 1112.46 389.602C1110.36 388.17 1108.74 386.097 1107.61 383.381C1106.48 380.665 1105.92 377.398 1105.94 373.58C1105.94 369.773 1106.5 366.528 1107.62 363.847C1108.76 361.165 1110.38 359.125 1112.48 357.727C1114.6 356.318 1117.11 355.614 1120.03 355.614C1122.95 355.614 1125.46 356.318 1127.57 357.727C1129.68 359.136 1131.31 361.182 1132.44 363.864C1133.58 366.534 1134.14 369.773 1134.13 373.58C1134.13 377.409 1133.56 380.682 1132.42 383.398C1131.3 386.114 1129.69 388.187 1127.58 389.619C1125.48 391.051 1122.96 391.767 1120.03 391.767ZM1120.03 385.648C1122.03 385.648 1123.63 384.642 1124.82 382.631C1126.02 380.619 1126.61 377.602 1126.6 373.58C1126.6 370.932 1126.32 368.727 1125.78 366.966C1125.24 365.205 1124.48 363.881 1123.49 362.994C1122.52 362.108 1121.36 361.665 1120.03 361.665C1118.04 361.665 1116.45 362.659 1115.26 364.648C1114.07 366.636 1113.46 369.614 1113.45 373.58C1113.45 376.261 1113.72 378.5 1114.25 380.295C1114.8 382.08 1115.57 383.42 1116.56 384.318C1117.54 385.205 1118.7 385.648 1120.03 385.648ZM1153.08 391.767C1150.15 391.756 1147.63 391.034 1145.51 389.602C1143.41 388.17 1141.79 386.097 1140.65 383.381C1139.53 380.665 1138.97 377.398 1138.98 373.58C1138.98 369.773 1139.55 366.528 1140.67 363.847C1141.81 361.165 1143.43 359.125 1145.53 357.727C1147.64 356.318 1150.16 355.614 1153.08 355.614C1156 355.614 1158.51 356.318 1160.61 357.727C1162.73 359.136 1164.35 361.182 1165.49 363.864C1166.63 366.534 1167.19 369.773 1167.18 373.58C1167.18 377.409 1166.61 380.682 1165.47 383.398C1164.35 386.114 1162.73 388.187 1160.63 389.619C1158.53 391.051 1156.01 391.767 1153.08 391.767ZM1153.08 385.648C1155.08 385.648 1156.68 384.642 1157.87 382.631C1159.06 380.619 1159.65 377.602 1159.64 373.58C1159.64 370.932 1159.37 368.727 1158.82 366.966C1158.29 365.205 1157.53 363.881 1156.54 362.994C1155.56 362.108 1154.41 361.665 1153.08 361.665C1151.09 361.665 1149.5 362.659 1148.31 364.648C1147.11 366.636 1146.51 369.614 1146.5 373.58C1146.5 376.261 1146.77 378.5 1147.3 380.295C1147.85 382.08 1148.61 383.42 1149.6 384.318C1150.59 385.205 1151.75 385.648 1153.08 385.648ZM1188.82 370.665V376.426H1172.9V370.665H1188.82ZM1201.16 391H1193.25L1205.3 356.091H1214.81L1226.85 391H1218.94L1210.19 364.068H1209.92L1201.16 391ZM1200.67 377.278H1219.35V383.04H1200.67V377.278ZM1243.75 391.477C1241.2 391.477 1238.94 391.04 1236.95 390.165C1234.97 389.278 1233.41 388.062 1232.26 386.517C1231.12 384.96 1230.54 383.165 1230.5 381.131H1237.94C1237.98 381.983 1238.26 382.733 1238.77 383.381C1239.29 384.017 1239.99 384.511 1240.85 384.864C1241.71 385.216 1242.69 385.392 1243.77 385.392C1244.89 385.392 1245.88 385.193 1246.75 384.795C1247.61 384.398 1248.29 383.847 1248.78 383.142C1249.27 382.437 1249.51 381.625 1249.51 380.705C1249.51 379.773 1249.25 378.949 1248.73 378.233C1248.21 377.506 1247.48 376.937 1246.51 376.528C1245.56 376.119 1244.42 375.915 1243.1 375.915H1239.85V370.494H1243.1C1244.21 370.494 1245.2 370.301 1246.05 369.915C1246.91 369.528 1247.58 368.994 1248.06 368.312C1248.54 367.619 1248.78 366.812 1248.78 365.892C1248.78 365.017 1248.57 364.25 1248.15 363.591C1247.74 362.92 1247.16 362.398 1246.41 362.023C1245.67 361.648 1244.81 361.46 1243.82 361.46C1242.82 361.46 1241.9 361.642 1241.07 362.006C1240.24 362.358 1239.58 362.864 1239.08 363.523C1238.58 364.182 1238.31 364.955 1238.28 365.841H1231.2C1231.24 363.83 1231.81 362.057 1232.92 360.523C1234.04 358.989 1235.54 357.79 1237.42 356.926C1239.32 356.051 1241.46 355.614 1243.85 355.614C1246.26 355.614 1248.37 356.051 1250.17 356.926C1251.98 357.801 1253.38 358.983 1254.38 360.472C1255.4 361.949 1255.9 363.608 1255.88 365.449C1255.9 367.403 1255.29 369.034 1254.06 370.341C1252.85 371.648 1251.26 372.477 1249.31 372.83V373.102C1251.87 373.432 1253.83 374.324 1255.17 375.778C1256.52 377.222 1257.19 379.028 1257.18 381.199C1257.19 383.188 1256.62 384.955 1255.46 386.5C1254.31 388.045 1252.73 389.261 1250.7 390.148C1248.68 391.034 1246.36 391.477 1243.75 391.477ZM1277.67 356.091V391H1270.29V363.097H1270.09L1262.09 368.108V361.562L1270.74 356.091H1277.67ZM1299.66 391.767C1296.73 391.756 1294.2 391.034 1292.09 389.602C1289.99 388.17 1288.37 386.097 1287.23 383.381C1286.11 380.665 1285.55 377.398 1285.56 373.58C1285.56 369.773 1286.12 366.528 1287.25 363.847C1288.38 361.165 1290 359.125 1292.11 357.727C1294.22 356.318 1296.74 355.614 1299.66 355.614C1302.58 355.614 1305.09 356.318 1307.19 357.727C1309.31 359.136 1310.93 361.182 1312.07 363.864C1313.2 366.534 1313.77 369.773 1313.75 373.58C1313.75 377.409 1313.19 380.682 1312.05 383.398C1310.92 386.114 1309.31 388.187 1307.21 389.619C1305.11 391.051 1302.59 391.767 1299.66 391.767ZM1299.66 385.648C1301.66 385.648 1303.25 384.642 1304.45 382.631C1305.64 380.619 1306.23 377.602 1306.22 373.58C1306.22 370.932 1305.95 368.727 1305.4 366.966C1304.87 365.205 1304.11 363.881 1303.12 362.994C1302.14 362.108 1300.99 361.665 1299.66 361.665C1297.67 361.665 1296.08 362.659 1294.88 364.648C1293.69 366.636 1293.09 369.614 1293.08 373.58C1293.08 376.261 1293.35 378.5 1293.88 380.295C1294.42 382.08 1295.19 383.42 1296.18 384.318C1297.17 385.205 1298.33 385.648 1299.66 385.648Z" fill="white"/>
<rect x="1064" y="411" width="161" height="31" rx="15" fill="#3F0072"/>
<path d="M1087.96 421.091H1090.8L1093.81 428.42H1093.93L1096.94 421.091H1099.78V432H1097.55V424.9H1097.45L1094.63 431.947H1093.11L1090.29 424.873H1090.19V432H1087.96V421.091ZM1105.34 432.16C1104.51 432.16 1103.79 431.984 1103.19 431.632C1102.59 431.277 1102.13 430.784 1101.8 430.152C1101.47 429.516 1101.31 428.779 1101.31 427.941C1101.31 427.096 1101.47 426.357 1101.8 425.725C1102.13 425.089 1102.59 424.596 1103.19 424.244C1103.79 423.889 1104.51 423.712 1105.34 423.712C1106.16 423.712 1106.88 423.889 1107.48 424.244C1108.08 424.596 1108.55 425.089 1108.87 425.725C1109.2 426.357 1109.36 427.096 1109.36 427.941C1109.36 428.779 1109.2 429.516 1108.87 430.152C1108.55 430.784 1108.08 431.277 1107.48 431.632C1106.88 431.984 1106.16 432.16 1105.34 432.16ZM1105.35 430.402C1105.72 430.402 1106.04 430.295 1106.29 430.082C1106.54 429.866 1106.73 429.571 1106.86 429.198C1106.99 428.825 1107.06 428.401 1107.06 427.925C1107.06 427.449 1106.99 427.025 1106.86 426.652C1106.73 426.279 1106.54 425.984 1106.29 425.768C1106.04 425.551 1105.72 425.443 1105.35 425.443C1104.97 425.443 1104.65 425.551 1104.39 425.768C1104.13 425.984 1103.94 426.279 1103.81 426.652C1103.68 427.025 1103.62 427.449 1103.62 427.925C1103.62 428.401 1103.68 428.825 1103.81 429.198C1103.94 429.571 1104.13 429.866 1104.39 430.082C1104.65 430.295 1104.97 430.402 1105.35 430.402ZM1113.85 432.133C1113.23 432.133 1112.67 431.973 1112.17 431.654C1111.67 431.331 1111.27 430.857 1110.97 430.232C1110.68 429.603 1110.54 428.832 1110.54 427.92C1110.54 426.982 1110.69 426.203 1110.99 425.581C1111.29 424.956 1111.69 424.489 1112.19 424.18C1112.7 423.868 1113.25 423.712 1113.85 423.712C1114.31 423.712 1114.69 423.79 1114.99 423.946C1115.3 424.099 1115.55 424.29 1115.74 424.521C1115.93 424.749 1116.08 424.972 1116.18 425.192H1116.25V421.091H1118.51V432H1116.27V430.69H1116.18C1116.07 430.917 1115.92 431.142 1115.72 431.366C1115.53 431.586 1115.28 431.769 1114.97 431.915C1114.67 432.06 1114.29 432.133 1113.85 432.133ZM1114.57 430.327C1114.94 430.327 1115.25 430.228 1115.5 430.029C1115.76 429.827 1115.95 429.544 1116.09 429.182C1116.22 428.82 1116.29 428.396 1116.29 427.909C1116.29 427.423 1116.23 427 1116.09 426.641C1115.96 426.283 1115.76 426.006 1115.51 425.81C1115.25 425.615 1114.94 425.517 1114.57 425.517C1114.2 425.517 1113.89 425.619 1113.63 425.821C1113.38 426.023 1113.18 426.304 1113.05 426.663C1112.92 427.021 1112.85 427.437 1112.85 427.909C1112.85 428.385 1112.92 428.806 1113.05 429.172C1113.19 429.534 1113.38 429.818 1113.63 430.024C1113.89 430.226 1114.2 430.327 1114.57 430.327ZM1125.62 428.516V423.818H1127.89V432H1125.71V430.514H1125.63C1125.44 430.993 1125.14 431.379 1124.71 431.67C1124.28 431.961 1123.76 432.107 1123.15 432.107C1122.6 432.107 1122.12 431.982 1121.7 431.734C1121.29 431.485 1120.96 431.132 1120.73 430.674C1120.5 430.216 1120.38 429.667 1120.38 429.028V423.818H1122.64V428.623C1122.65 429.106 1122.78 429.488 1123.03 429.768C1123.29 430.049 1123.63 430.189 1124.06 430.189C1124.34 430.189 1124.59 430.127 1124.83 430.002C1125.07 429.875 1125.26 429.686 1125.4 429.438C1125.55 429.189 1125.63 428.882 1125.62 428.516ZM1131.98 421.091V432H1129.71V421.091H1131.98ZM1137.52 432.16C1136.68 432.16 1135.96 431.989 1135.35 431.648C1134.75 431.304 1134.28 430.817 1133.95 430.189C1133.63 429.557 1133.46 428.809 1133.46 427.946C1133.46 427.105 1133.63 426.366 1133.95 425.73C1134.28 425.095 1134.74 424.599 1135.33 424.244C1135.93 423.889 1136.63 423.712 1137.43 423.712C1137.97 423.712 1138.47 423.799 1138.94 423.973C1139.41 424.143 1139.82 424.401 1140.16 424.745C1140.52 425.089 1140.79 425.523 1140.98 426.045C1141.18 426.563 1141.28 427.17 1141.28 427.866V428.49H1134.37V427.083H1139.14C1139.14 426.757 1139.07 426.467 1138.93 426.215C1138.79 425.963 1138.59 425.766 1138.34 425.624C1138.09 425.478 1137.8 425.406 1137.47 425.406C1137.12 425.406 1136.82 425.485 1136.55 425.645C1136.29 425.801 1136.08 426.013 1135.94 426.279C1135.79 426.542 1135.71 426.835 1135.71 427.158V428.495C1135.71 428.9 1135.78 429.25 1135.93 429.544C1136.08 429.839 1136.3 430.066 1136.57 430.226C1136.85 430.386 1137.18 430.466 1137.56 430.466C1137.81 430.466 1138.04 430.43 1138.25 430.359C1138.46 430.288 1138.64 430.182 1138.79 430.04C1138.94 429.898 1139.05 429.724 1139.13 429.518L1141.23 429.656C1141.12 430.161 1140.9 430.601 1140.57 430.977C1140.25 431.35 1139.83 431.641 1139.31 431.851C1138.79 432.057 1138.2 432.16 1137.52 432.16ZM1150.96 421.091V432H1148.65V423.28H1148.58L1146.09 424.846V422.801L1148.79 421.091H1150.96ZM1157.83 432.24C1156.91 432.236 1156.12 432.011 1155.46 431.563C1154.8 431.116 1154.3 430.468 1153.94 429.619C1153.59 428.77 1153.42 427.749 1153.42 426.556C1153.42 425.366 1153.6 424.353 1153.95 423.515C1154.3 422.676 1154.81 422.039 1155.47 421.602C1156.13 421.162 1156.91 420.942 1157.83 420.942C1158.74 420.942 1159.52 421.162 1160.18 421.602C1160.84 422.043 1161.35 422.682 1161.7 423.52C1162.06 424.354 1162.23 425.366 1162.23 426.556C1162.23 427.753 1162.05 428.776 1161.7 429.624C1161.35 430.473 1160.84 431.121 1160.18 431.569C1159.53 432.016 1158.74 432.24 1157.83 432.24ZM1157.83 430.327C1158.45 430.327 1158.95 430.013 1159.32 429.385C1159.69 428.756 1159.88 427.813 1159.88 426.556C1159.88 425.729 1159.79 425.04 1159.62 424.489C1159.45 423.939 1159.22 423.525 1158.91 423.248C1158.6 422.971 1158.24 422.833 1157.83 422.833C1157.2 422.833 1156.71 423.143 1156.33 423.765C1155.96 424.386 1155.77 425.317 1155.77 426.556C1155.77 427.394 1155.85 428.094 1156.02 428.655C1156.19 429.212 1156.43 429.631 1156.74 429.912C1157.05 430.189 1157.41 430.327 1157.83 430.327Z" fill="white"/>
<g clip-path="url(#clip4_1_197)">
<path d="M1185.96 423.083L1194.5 431.625L1203.04 423.083H1185.96Z" fill="white"/>
</g>
<rect x="722" y="482" width="844" height="78" rx="4" fill="#D9D9D9"/>
<rect x="722" y="1126" width="844" height="77" rx="4" fill="#D9D9D9"/>
<rect x="722" y="585" width="844" height="505" rx="4" fill="#D9D9D9"/>
<rect x="722" y="1229" width="844" height="442" rx="4" fill="#D9D9D9"/>
</g>
<rect width="1512" height="982" transform="translate(1691 751)" fill="white"/>
<rect x="1691" y="751" width="1512" height="201" fill="#5B00A3"/>
<g clip-path="url(#clip5_1_197)">
<path d="M1789.75 866.5H1836.25V861.333H1789.75V866.5ZM1789.75 853.583H1836.25V848.417H1789.75V853.583ZM1789.75 835.5V840.667H1836.25V835.5H1789.75Z" fill="white"/>
</g>
<path d="M2307.15 845.312H2299.68C2299.55 844.347 2299.27 843.489 2298.85 842.739C2298.43 841.977 2297.89 841.33 2297.23 840.795C2296.57 840.261 2295.81 839.852 2294.94 839.568C2294.09 839.284 2293.16 839.142 2292.16 839.142C2290.36 839.142 2288.78 839.591 2287.44 840.489C2286.1 841.375 2285.06 842.67 2284.32 844.375C2283.59 846.068 2283.22 848.125 2283.22 850.545C2283.22 853.034 2283.59 855.125 2284.32 856.818C2285.07 858.511 2286.12 859.79 2287.46 860.653C2288.8 861.517 2290.35 861.949 2292.11 861.949C2293.1 861.949 2294.02 861.818 2294.86 861.557C2295.71 861.295 2296.47 860.915 2297.12 860.415C2297.78 859.903 2298.33 859.284 2298.76 858.557C2299.2 857.83 2299.51 857 2299.68 856.068L2307.15 856.102C2306.95 857.705 2306.47 859.25 2305.7 860.739C2304.94 862.216 2303.91 863.54 2302.61 864.71C2301.33 865.869 2299.8 866.79 2298.01 867.472C2296.24 868.142 2294.23 868.477 2291.99 868.477C2288.88 868.477 2286.1 867.773 2283.64 866.364C2281.2 864.955 2279.27 862.915 2277.85 860.244C2276.44 857.574 2275.73 854.341 2275.73 850.545C2275.73 846.739 2276.45 843.5 2277.88 840.83C2279.31 838.159 2281.26 836.125 2283.71 834.727C2286.16 833.318 2288.93 832.614 2291.99 832.614C2294.02 832.614 2295.89 832.898 2297.62 833.466C2299.36 834.034 2300.9 834.864 2302.24 835.955C2303.58 837.034 2304.67 838.358 2305.51 839.926C2306.36 841.494 2306.91 843.29 2307.15 845.312ZM2331.38 843.131C2331.24 841.756 2330.66 840.687 2329.62 839.926C2328.59 839.165 2327.18 838.784 2325.41 838.784C2324.21 838.784 2323.19 838.955 2322.36 839.295C2321.53 839.625 2320.89 840.085 2320.45 840.676C2320.02 841.267 2319.8 841.938 2319.8 842.688C2319.78 843.312 2319.91 843.858 2320.2 844.324C2320.49 844.79 2320.89 845.193 2321.41 845.534C2321.92 845.864 2322.51 846.153 2323.18 846.403C2323.85 846.642 2324.57 846.847 2325.33 847.017L2328.46 847.767C2329.99 848.108 2331.38 848.562 2332.66 849.131C2333.93 849.699 2335.03 850.398 2335.96 851.227C2336.89 852.057 2337.62 853.034 2338.13 854.159C2338.65 855.284 2338.92 856.574 2338.93 858.028C2338.92 860.165 2338.37 862.017 2337.29 863.585C2336.22 865.142 2334.68 866.352 2332.66 867.216C2330.64 868.068 2328.22 868.494 2325.38 868.494C2322.56 868.494 2320.11 868.062 2318.01 867.199C2315.93 866.335 2314.31 865.057 2313.14 863.364C2311.98 861.659 2311.37 859.551 2311.32 857.04H2318.46C2318.54 858.21 2318.87 859.187 2319.46 859.972C2320.07 860.744 2320.87 861.33 2321.87 861.727C2322.88 862.114 2324.02 862.307 2325.29 862.307C2326.54 862.307 2327.63 862.125 2328.55 861.761C2329.48 861.398 2330.2 860.892 2330.71 860.244C2331.22 859.597 2331.48 858.852 2331.48 858.011C2331.48 857.227 2331.25 856.568 2330.78 856.034C2330.33 855.5 2329.66 855.045 2328.77 854.67C2327.89 854.295 2326.82 853.955 2325.55 853.648L2321.75 852.693C2318.8 851.977 2316.48 850.858 2314.78 849.335C2313.07 847.812 2312.22 845.761 2312.24 843.182C2312.22 841.068 2312.79 839.222 2313.92 837.642C2315.07 836.062 2316.64 834.83 2318.64 833.943C2320.64 833.057 2322.92 832.614 2325.46 832.614C2328.05 832.614 2330.32 833.057 2332.25 833.943C2334.19 834.83 2335.7 836.062 2336.78 837.642C2337.86 839.222 2338.42 841.051 2338.45 843.131H2331.38ZM2356.27 868H2343.89V833.091H2356.37C2359.88 833.091 2362.9 833.79 2365.44 835.188C2367.97 836.574 2369.92 838.568 2371.29 841.17C2372.66 843.773 2373.35 846.886 2373.35 850.511C2373.35 854.148 2372.66 857.273 2371.29 859.886C2369.92 862.5 2367.96 864.506 2365.4 865.903C2362.86 867.301 2359.81 868 2356.27 868ZM2351.27 861.676H2355.96C2358.14 861.676 2359.98 861.29 2361.47 860.517C2362.97 859.733 2364.09 858.523 2364.84 856.886C2365.6 855.239 2365.98 853.114 2365.98 850.511C2365.98 847.932 2365.6 845.824 2364.84 844.188C2364.09 842.551 2362.97 841.347 2361.48 840.574C2360 839.801 2358.16 839.415 2355.98 839.415H2351.27V861.676ZM2378.61 868V862.682L2391.04 851.176C2392.09 850.153 2392.98 849.233 2393.7 848.415C2394.42 847.597 2394.97 846.795 2395.35 846.011C2395.72 845.216 2395.91 844.358 2395.91 843.438C2395.91 842.415 2395.68 841.534 2395.21 840.795C2394.75 840.045 2394.11 839.472 2393.3 839.074C2392.5 838.665 2391.58 838.46 2390.56 838.46C2389.49 838.46 2388.56 838.676 2387.76 839.108C2386.97 839.54 2386.36 840.159 2385.92 840.966C2385.49 841.773 2385.28 842.733 2385.28 843.847H2378.27C2378.27 841.562 2378.79 839.58 2379.82 837.898C2380.86 836.216 2382.3 834.915 2384.17 833.994C2386.03 833.074 2388.18 832.614 2390.61 832.614C2393.11 832.614 2395.29 833.057 2397.14 833.943C2399 834.818 2400.45 836.034 2401.49 837.591C2402.52 839.148 2403.04 840.932 2403.04 842.943C2403.04 844.261 2402.78 845.562 2402.25 846.847C2401.74 848.131 2400.83 849.557 2399.51 851.125C2398.19 852.682 2396.33 854.551 2393.93 856.733L2388.84 861.727V861.966H2403.5V868H2378.61ZM2422.53 868.767C2419.6 868.756 2417.08 868.034 2414.96 866.602C2412.86 865.17 2411.24 863.097 2410.11 860.381C2408.98 857.665 2408.42 854.398 2408.44 850.58C2408.44 846.773 2409 843.528 2410.12 840.847C2411.26 838.165 2412.88 836.125 2414.98 834.727C2417.1 833.318 2419.61 832.614 2422.53 832.614C2425.45 832.614 2427.96 833.318 2430.07 834.727C2432.18 836.136 2433.81 838.182 2434.94 840.864C2436.08 843.534 2436.64 846.773 2436.63 850.58C2436.63 854.409 2436.06 857.682 2434.92 860.398C2433.8 863.114 2432.19 865.187 2430.08 866.619C2427.98 868.051 2425.46 868.767 2422.53 868.767ZM2422.53 862.648C2424.53 862.648 2426.13 861.642 2427.32 859.631C2428.52 857.619 2429.11 854.602 2429.1 850.58C2429.1 847.932 2428.82 845.727 2428.28 843.966C2427.74 842.205 2426.98 840.881 2425.99 839.994C2425.02 839.108 2423.86 838.665 2422.53 838.665C2420.54 838.665 2418.95 839.659 2417.76 841.648C2416.57 843.636 2415.96 846.614 2415.95 850.58C2415.95 853.261 2416.22 855.5 2416.75 857.295C2417.3 859.08 2418.07 860.42 2419.06 861.318C2420.04 862.205 2421.2 862.648 2422.53 862.648ZM2455.58 868.767C2452.65 868.756 2450.13 868.034 2448.01 866.602C2445.91 865.17 2444.29 863.097 2443.15 860.381C2442.03 857.665 2441.47 854.398 2441.48 850.58C2441.48 846.773 2442.05 843.528 2443.17 840.847C2444.31 838.165 2445.93 836.125 2448.03 834.727C2450.14 833.318 2452.66 832.614 2455.58 832.614C2458.5 832.614 2461.01 833.318 2463.11 834.727C2465.23 836.136 2466.85 838.182 2467.99 840.864C2469.13 843.534 2469.69 846.773 2469.68 850.58C2469.68 854.409 2469.11 857.682 2467.97 860.398C2466.85 863.114 2465.23 865.187 2463.13 866.619C2461.03 868.051 2458.51 868.767 2455.58 868.767ZM2455.58 862.648C2457.58 862.648 2459.18 861.642 2460.37 859.631C2461.56 857.619 2462.15 854.602 2462.14 850.58C2462.14 847.932 2461.87 845.727 2461.32 843.966C2460.79 842.205 2460.03 840.881 2459.04 839.994C2458.06 839.108 2456.91 838.665 2455.58 838.665C2453.59 838.665 2452 839.659 2450.81 841.648C2449.61 843.636 2449.01 846.614 2449 850.58C2449 853.261 2449.27 855.5 2449.8 857.295C2450.35 859.08 2451.11 860.42 2452.1 861.318C2453.09 862.205 2454.25 862.648 2455.58 862.648ZM2491.32 847.665V853.426H2475.4V847.665H2491.32ZM2503.66 868H2495.75L2507.8 833.091H2517.31L2529.35 868H2521.44L2512.69 841.068H2512.42L2503.66 868ZM2503.17 854.278H2521.85V860.04H2503.17V854.278ZM2546.25 868.477C2543.7 868.477 2541.44 868.04 2539.45 867.165C2537.47 866.278 2535.91 865.062 2534.76 863.517C2533.62 861.96 2533.04 860.165 2533 858.131H2540.44C2540.48 858.983 2540.76 859.733 2541.27 860.381C2541.79 861.017 2542.49 861.511 2543.35 861.864C2544.21 862.216 2545.19 862.392 2546.27 862.392C2547.39 862.392 2548.38 862.193 2549.25 861.795C2550.11 861.398 2550.79 860.847 2551.28 860.142C2551.77 859.437 2552.01 858.625 2552.01 857.705C2552.01 856.773 2551.75 855.949 2551.23 855.233C2550.71 854.506 2549.98 853.937 2549.01 853.528C2548.06 853.119 2546.92 852.915 2545.6 852.915H2542.35V847.494H2545.6C2546.71 847.494 2547.7 847.301 2548.55 846.915C2549.41 846.528 2550.08 845.994 2550.56 845.312C2551.04 844.619 2551.28 843.812 2551.28 842.892C2551.28 842.017 2551.07 841.25 2550.65 840.591C2550.24 839.92 2549.66 839.398 2548.91 839.023C2548.17 838.648 2547.31 838.46 2546.32 838.46C2545.32 838.46 2544.4 838.642 2543.57 839.006C2542.74 839.358 2542.08 839.864 2541.58 840.523C2541.08 841.182 2540.81 841.955 2540.78 842.841H2533.7C2533.74 840.83 2534.31 839.057 2535.42 837.523C2536.54 835.989 2538.04 834.79 2539.92 833.926C2541.82 833.051 2543.96 832.614 2546.35 832.614C2548.76 832.614 2550.87 833.051 2552.67 833.926C2554.48 834.801 2555.88 835.983 2556.88 837.472C2557.9 838.949 2558.4 840.608 2558.38 842.449C2558.4 844.403 2557.79 846.034 2556.56 847.341C2555.35 848.648 2553.76 849.477 2551.81 849.83V850.102C2554.37 850.432 2556.33 851.324 2557.67 852.778C2559.02 854.222 2559.69 856.028 2559.68 858.199C2559.69 860.188 2559.12 861.955 2557.96 863.5C2556.81 865.045 2555.23 866.261 2553.2 867.148C2551.18 868.034 2548.86 868.477 2546.25 868.477ZM2580.17 833.091V868H2572.79V840.097H2572.59L2564.59 845.108V838.562L2573.24 833.091H2580.17ZM2602.16 868.767C2599.23 868.756 2596.7 868.034 2594.59 866.602C2592.49 865.17 2590.87 863.097 2589.73 860.381C2588.61 857.665 2588.05 854.398 2588.06 850.58C2588.06 846.773 2588.62 843.528 2589.75 840.847C2590.88 838.165 2592.5 836.125 2594.61 834.727C2596.72 833.318 2599.24 832.614 2602.16 832.614C2605.08 832.614 2607.59 833.318 2609.69 834.727C2611.81 836.136 2613.43 838.182 2614.57 840.864C2615.7 843.534 2616.27 846.773 2616.25 850.58C2616.25 854.409 2615.69 857.682 2614.55 860.398C2613.42 863.114 2611.81 865.187 2609.71 866.619C2607.61 868.051 2605.09 868.767 2602.16 868.767ZM2602.16 862.648C2604.16 862.648 2605.75 861.642 2606.95 859.631C2608.14 857.619 2608.73 854.602 2608.72 850.58C2608.72 847.932 2608.45 845.727 2607.9 843.966C2607.37 842.205 2606.61 840.881 2605.62 839.994C2604.64 839.108 2603.49 838.665 2602.16 838.665C2600.17 838.665 2598.58 839.659 2597.38 841.648C2596.19 843.636 2595.59 846.614 2595.58 850.58C2595.58 853.261 2595.85 855.5 2596.38 857.295C2596.92 859.08 2597.69 860.42 2598.68 861.318C2599.67 862.205 2600.83 862.648 2602.16 862.648Z" fill="white"/>
<rect x="2341" y="897" width="212" height="39" rx="15" fill="#3F0072"/>
<path d="M2368.61 909.455H2372.4L2376.41 919.227H2376.58L2380.58 909.455H2384.38V924H2381.39V914.533H2381.27L2377.51 923.929H2375.48L2371.71 914.497H2371.59V924H2368.61V909.455ZM2391.78 924.213C2390.68 924.213 2389.73 923.979 2388.92 923.51C2388.12 923.036 2387.5 922.378 2387.07 921.536C2386.63 920.688 2386.41 919.705 2386.41 918.588C2386.41 917.461 2386.63 916.476 2387.07 915.634C2387.5 914.786 2388.12 914.128 2388.92 913.659C2389.73 913.186 2390.68 912.949 2391.78 912.949C2392.89 912.949 2393.84 913.186 2394.64 913.659C2395.44 914.128 2396.06 914.786 2396.5 915.634C2396.93 916.476 2397.15 917.461 2397.15 918.588C2397.15 919.705 2396.93 920.688 2396.5 921.536C2396.06 922.378 2395.44 923.036 2394.64 923.51C2393.84 923.979 2392.89 924.213 2391.78 924.213ZM2391.8 921.869C2392.3 921.869 2392.72 921.727 2393.05 921.443C2393.39 921.154 2393.64 920.761 2393.81 920.264C2393.99 919.767 2394.08 919.201 2394.08 918.567C2394.08 917.932 2393.99 917.366 2393.81 916.869C2393.64 916.372 2393.39 915.979 2393.05 915.69C2392.72 915.402 2392.3 915.257 2391.8 915.257C2391.29 915.257 2390.86 915.402 2390.52 915.69C2390.18 915.979 2389.92 916.372 2389.74 916.869C2389.57 917.366 2389.49 917.932 2389.49 918.567C2389.49 919.201 2389.57 919.767 2389.74 920.264C2389.92 920.761 2390.18 921.154 2390.52 921.443C2390.86 921.727 2391.29 921.869 2391.8 921.869ZM2403.14 924.178C2402.31 924.178 2401.56 923.964 2400.89 923.538C2400.22 923.107 2399.69 922.475 2399.3 921.642C2398.91 920.804 2398.71 919.777 2398.71 918.56C2398.71 917.31 2398.92 916.27 2399.32 915.442C2399.72 914.608 2400.26 913.986 2400.92 913.574C2401.6 913.157 2402.33 912.949 2403.13 912.949C2403.74 912.949 2404.25 913.053 2404.66 913.261C2405.07 913.465 2405.4 913.721 2405.65 914.028C2405.91 914.331 2406.1 914.63 2406.24 914.923H2406.33V909.455H2409.35V924H2406.36V922.253H2406.24C2406.09 922.556 2405.89 922.857 2405.63 923.155C2405.38 923.448 2405.04 923.692 2404.63 923.886C2404.22 924.08 2403.73 924.178 2403.14 924.178ZM2404.1 921.77C2404.59 921.77 2405 921.637 2405.33 921.372C2405.67 921.102 2405.94 920.726 2406.12 920.243C2406.3 919.76 2406.39 919.194 2406.39 918.545C2406.39 917.897 2406.3 917.333 2406.12 916.855C2405.94 916.377 2405.68 916.008 2405.34 915.747C2405 915.487 2404.59 915.357 2404.1 915.357C2403.6 915.357 2403.18 915.491 2402.84 915.761C2402.5 916.031 2402.24 916.405 2402.07 916.884C2401.89 917.362 2401.8 917.916 2401.8 918.545C2401.8 919.18 2401.89 919.741 2402.07 920.229C2402.25 920.712 2402.5 921.09 2402.84 921.365C2403.18 921.635 2403.6 921.77 2404.1 921.77ZM2418.83 919.355V913.091H2421.86V924H2418.95V922.018H2418.84C2418.59 922.658 2418.18 923.171 2417.61 923.56C2417.04 923.948 2416.35 924.142 2415.53 924.142C2414.8 924.142 2414.16 923.976 2413.6 923.645C2413.05 923.313 2412.62 922.842 2412.3 922.232C2412 921.621 2411.84 920.889 2411.83 920.037V913.091H2414.86V919.497C2414.86 920.141 2415.04 920.65 2415.38 921.024C2415.72 921.398 2416.18 921.585 2416.75 921.585C2417.11 921.585 2417.45 921.502 2417.77 921.337C2418.09 921.166 2418.34 920.915 2418.54 920.584C2418.74 920.252 2418.83 919.843 2418.83 919.355ZM2427.3 909.455V924H2424.28V909.455H2427.3ZM2434.7 924.213C2433.57 924.213 2432.61 923.986 2431.8 923.531C2430.99 923.072 2430.37 922.423 2429.94 921.585C2429.5 920.742 2429.28 919.746 2429.28 918.595C2429.28 917.473 2429.5 916.488 2429.94 915.641C2430.37 914.793 2430.99 914.133 2431.78 913.659C2432.57 913.186 2433.51 912.949 2434.58 912.949C2435.3 912.949 2435.97 913.065 2436.59 913.297C2437.21 913.524 2437.76 913.867 2438.22 914.327C2438.69 914.786 2439.05 915.364 2439.31 916.06C2439.57 916.751 2439.7 917.561 2439.7 918.489V919.32H2430.49V917.445H2436.86C2436.86 917.009 2436.76 916.623 2436.57 916.287C2436.38 915.951 2436.12 915.688 2435.78 915.499C2435.45 915.304 2435.07 915.207 2434.63 915.207C2434.17 915.207 2433.76 915.314 2433.4 915.527C2433.05 915.735 2432.78 916.017 2432.58 916.372C2432.38 916.723 2432.28 917.113 2432.27 917.544V919.327C2432.27 919.866 2432.37 920.333 2432.57 920.726C2432.78 921.119 2433.06 921.422 2433.43 921.635C2433.8 921.848 2434.24 921.955 2434.75 921.955C2435.08 921.955 2435.39 921.907 2435.67 921.812C2435.95 921.718 2436.19 921.576 2436.39 921.386C2436.59 921.197 2436.74 920.965 2436.84 920.69L2439.64 920.875C2439.5 921.547 2439.21 922.134 2438.77 922.636C2438.33 923.134 2437.77 923.522 2437.08 923.801C2436.39 924.076 2435.6 924.213 2434.7 924.213ZM2452.61 909.455V924H2449.53V912.374H2449.45L2446.12 914.462V911.734L2449.72 909.455H2452.61ZM2461.77 924.32C2460.55 924.315 2459.49 924.014 2458.61 923.418C2457.74 922.821 2457.06 921.957 2456.59 920.825C2456.12 919.694 2455.89 918.332 2455.89 916.741C2455.89 915.155 2456.13 913.804 2456.6 912.686C2457.07 911.569 2457.74 910.719 2458.62 910.136C2459.5 909.549 2460.55 909.256 2461.77 909.256C2462.98 909.256 2464.03 909.549 2464.91 910.136C2465.79 910.723 2466.46 911.576 2466.94 912.693C2467.41 913.806 2467.65 915.155 2467.64 916.741C2467.64 918.337 2467.4 919.701 2466.93 920.832C2466.46 921.964 2465.79 922.828 2464.91 923.425C2464.04 924.021 2462.99 924.32 2461.77 924.32ZM2461.77 921.77C2462.6 921.77 2463.27 921.351 2463.76 920.513C2464.26 919.675 2464.51 918.418 2464.5 916.741C2464.5 915.638 2464.39 914.72 2464.16 913.986C2463.94 913.252 2463.62 912.7 2463.21 912.331C2462.8 911.962 2462.32 911.777 2461.77 911.777C2460.94 911.777 2460.28 912.191 2459.78 913.02C2459.28 913.848 2459.03 915.089 2459.03 916.741C2459.03 917.859 2459.14 918.792 2459.36 919.54C2459.59 920.283 2459.91 920.842 2460.32 921.216C2460.73 921.585 2461.21 921.77 2461.77 921.77Z" fill="white"/>
<g clip-path="url(#clip6_1_197)">
<path d="M2509.88 913.25L2520.5 923.875L2531.12 913.25H2509.88Z" fill="white"/>
</g>
<rect x="1782" y="984" width="1330" height="96" rx="4" fill="#D9D9D9"/>
<rect x="1782" y="1111" width="1330" height="565" rx="4" fill="#D9D9D9"/>
<defs>
<clipPath id="clip0_1_197">
<rect width="35" height="35" fill="white" transform="translate(233 911)"/>
</clipPath>
<clipPath id="clip1_1_197">
<rect width="24" height="24" fill="white" transform="translate(432 946)"/>
</clipPath>
<clipPath id="clip2_1_197">
<rect width="1440" height="960" fill="white" transform="matrix(0 -1 1 0 664 1733)"/>
</clipPath>
<clipPath id="clip3_1_197">
<rect width="50" height="50" fill="white" transform="translate(722 349)"/>
</clipPath>
<clipPath id="clip4_1_197">
<rect width="41" height="41" fill="white" transform="translate(1174 406)"/>
</clipPath>
<clipPath id="clip5_1_197">
<rect width="62" height="62" fill="white" transform="translate(1782 820)"/>
</clipPath>
<clipPath id="clip6_1_197">
<rect width="51" height="51" fill="white" transform="translate(2495 892)"/>
</clipPath>
</defs>
</svg>
