<svg width="699" height="109" viewBox="0 0 699 109" fill="none" xmlns="http://www.w3.org/2000/svg">
<rect width="699" height="109" rx="54.5" fill="#00C2FF"/>
<path d="M107.834 52.525H111.734C113.944 52.525 115.677 52.005 116.934 50.965C118.234 49.925 118.884 48.43 118.884 46.48C118.884 44.53 118.277 43.0567 117.064 42.06C115.85 41.0633 114.095 40.565 111.799 40.565C111.019 40.565 110.304 40.5867 109.654 40.63C109.047 40.6733 108.44 40.7383 107.834 40.825V52.525ZM112.384 60.325H98.0188V37.055C98.0188 36.2317 98.2571 35.5817 98.7338 35.105C99.2105 34.6283 99.8388 34.26 100.619 34C102.049 33.48 103.76 33.1117 105.754 32.895C107.747 32.6783 109.545 32.57 111.149 32.57C116.999 32.57 121.419 33.8267 124.409 36.34C127.442 38.81 128.959 42.19 128.959 46.48C128.959 49.2533 128.287 51.68 126.944 53.76C125.644 55.84 123.759 57.465 121.289 58.635C118.819 59.7617 115.85 60.325 112.384 60.325ZM98.0188 55.97H107.899V72.935C107.509 73.065 106.88 73.1733 106.014 73.26C105.147 73.39 104.259 73.455 103.349 73.455C101.399 73.455 100.012 73.1083 99.1888 72.415C98.4088 71.7217 98.0188 70.5083 98.0188 68.775V55.97ZM165.261 57.4C165.261 60.78 164.568 63.7267 163.181 66.24C161.838 68.71 159.931 70.6167 157.461 71.96C154.991 73.3033 152.088 73.975 148.751 73.975C145.458 73.975 142.555 73.325 140.041 72.025C137.571 70.6817 135.643 68.775 134.256 66.305C132.913 63.7917 132.241 60.8233 132.241 57.4C132.241 53.9767 132.935 51.0517 134.321 48.625C135.708 46.155 137.636 44.2483 140.106 42.905C142.62 41.5183 145.501 40.825 148.751 40.825C152.045 40.825 154.926 41.5183 157.396 42.905C159.866 44.2483 161.795 46.1767 163.181 48.69C164.568 51.16 165.261 54.0633 165.261 57.4ZM148.751 48.43C146.715 48.43 145.09 49.21 143.876 50.77C142.706 52.33 142.121 54.54 142.121 57.4C142.121 60.3033 142.706 62.535 143.876 64.095C145.046 65.6117 146.671 66.37 148.751 66.37C150.831 66.37 152.456 65.59 153.626 64.03C154.796 62.47 155.381 60.26 155.381 57.4C155.381 54.5833 154.796 52.395 153.626 50.835C152.456 49.2317 150.831 48.43 148.751 48.43ZM180.934 50.185V58.31H171.314V49.015C171.314 47.8017 171.596 46.7833 172.159 45.96C172.766 45.0933 173.589 44.335 174.629 43.685C176.059 42.8183 177.771 42.1467 179.764 41.67C181.801 41.15 183.924 40.89 186.134 40.89C190.554 40.89 192.764 42.3633 192.764 45.31C192.764 46.0033 192.656 46.6533 192.439 47.26C192.266 47.8667 192.049 48.3867 191.789 48.82C191.356 48.7333 190.814 48.6683 190.164 48.625C189.558 48.5383 188.886 48.495 188.149 48.495C186.849 48.495 185.549 48.6467 184.249 48.95C182.949 49.2533 181.844 49.665 180.934 50.185ZM171.314 55.84L180.934 56.035V72.935C180.501 73.065 179.894 73.1733 179.114 73.26C178.334 73.39 177.489 73.455 176.579 73.455C174.759 73.455 173.416 73.13 172.549 72.48C171.726 71.83 171.314 70.66 171.314 68.97V55.84ZM197.659 55.84H207.214V62.795C207.214 64.0083 207.604 64.8967 208.384 65.46C209.164 66.0233 210.269 66.305 211.699 66.305C212.349 66.305 213.042 66.24 213.779 66.11C214.559 65.9367 215.209 65.7417 215.729 65.525C216.075 65.915 216.379 66.3917 216.639 66.955C216.942 67.5183 217.094 68.1683 217.094 68.905C217.094 70.3783 216.487 71.5917 215.274 72.545C214.06 73.4983 212.024 73.975 209.164 73.975C205.524 73.975 202.685 73.1517 200.649 71.505C198.655 69.8583 197.659 67.1717 197.659 63.445V55.84ZM203.769 49.925V42.515H216.249C216.465 42.8617 216.682 43.36 216.899 44.01C217.115 44.66 217.224 45.375 217.224 46.155C217.224 47.455 216.92 48.4083 216.314 49.015C215.75 49.6217 214.97 49.925 213.974 49.925H203.769ZM207.214 57.465H197.659V34.13C198.092 34 198.699 33.87 199.479 33.74C200.259 33.5667 201.082 33.48 201.949 33.48C203.812 33.48 205.155 33.805 205.979 34.455C206.802 35.105 207.214 36.2967 207.214 38.03V57.465ZM230.784 51.485V44.075H243.459C243.676 44.4217 243.893 44.92 244.109 45.57C244.326 46.22 244.434 46.935 244.434 47.715C244.434 49.0583 244.131 50.0333 243.524 50.64C242.961 51.2033 242.159 51.485 241.119 51.485H230.784ZM232.279 41.475V50.315H223.114V41.15C223.114 38.29 223.699 35.9717 224.869 34.195C226.083 32.4183 227.729 31.1183 229.809 30.295C231.933 29.4283 234.273 28.995 236.829 28.995C239.863 28.995 242.116 29.4067 243.589 30.23C245.106 31.01 245.864 32.2883 245.864 34.065C245.864 34.845 245.691 35.5383 245.344 36.145C245.041 36.7517 244.694 37.2283 244.304 37.575C243.481 37.315 242.593 37.0983 241.639 36.925C240.686 36.7517 239.624 36.665 238.454 36.665C236.418 36.665 234.879 37.0333 233.839 37.77C232.799 38.5067 232.279 39.7417 232.279 41.475ZM223.114 48.43H232.734V72.935C232.301 73.065 231.694 73.1733 230.914 73.26C230.134 73.39 229.289 73.455 228.379 73.455C226.559 73.455 225.216 73.13 224.349 72.48C223.526 71.83 223.114 70.66 223.114 68.97V48.43ZM280.408 57.4C280.408 60.78 279.714 63.7267 278.328 66.24C276.984 68.71 275.078 70.6167 272.608 71.96C270.138 73.3033 267.234 73.975 263.898 73.975C260.604 73.975 257.701 73.325 255.188 72.025C252.718 70.6817 250.789 68.775 249.403 66.305C248.059 63.7917 247.388 60.8233 247.388 57.4C247.388 53.9767 248.081 51.0517 249.468 48.625C250.854 46.155 252.783 44.2483 255.253 42.905C257.766 41.5183 260.648 40.825 263.898 40.825C267.191 40.825 270.073 41.5183 272.543 42.905C275.013 44.2483 276.941 46.1767 278.328 48.69C279.714 51.16 280.408 54.0633 280.408 57.4ZM263.898 48.43C261.861 48.43 260.236 49.21 259.023 50.77C257.853 52.33 257.268 54.54 257.268 57.4C257.268 60.3033 257.853 62.535 259.023 64.095C260.193 65.6117 261.818 66.37 263.898 66.37C265.978 66.37 267.603 65.59 268.773 64.03C269.943 62.47 270.528 60.26 270.528 57.4C270.528 54.5833 269.943 52.395 268.773 50.835C267.603 49.2317 265.978 48.43 263.898 48.43ZM286.786 55.84L296.471 56.035V72.935C296.038 73.065 295.431 73.1733 294.651 73.26C293.871 73.39 293.026 73.455 292.116 73.455C290.296 73.455 288.953 73.13 288.086 72.48C287.219 71.83 286.786 70.66 286.786 68.97V55.84ZM296.471 61.04L286.786 60.845V30.685C287.219 30.555 287.826 30.425 288.606 30.295C289.386 30.165 290.231 30.1 291.141 30.1C293.004 30.1 294.348 30.425 295.171 31.075C296.038 31.725 296.471 32.9167 296.471 34.65V61.04ZM304.036 32.83C304.036 31.3567 304.535 30.1217 305.531 29.125C306.571 28.1283 307.871 27.63 309.431 27.63C311.035 27.63 312.335 28.1283 313.331 29.125C314.328 30.1217 314.826 31.3567 314.826 32.83C314.826 34.26 314.328 35.495 313.331 36.535C312.335 37.575 311.035 38.095 309.431 38.095C307.871 38.095 306.571 37.575 305.531 36.535C304.535 35.495 304.036 34.26 304.036 32.83ZM304.621 55.84H314.241V72.935C313.851 73.065 313.266 73.1733 312.486 73.26C311.706 73.39 310.861 73.455 309.951 73.455C308.088 73.455 306.723 73.13 305.856 72.48C305.033 71.83 304.621 70.66 304.621 68.97V55.84ZM314.241 60.845H304.621V42.19C305.011 42.06 305.596 41.93 306.376 41.8C307.2 41.67 308.066 41.605 308.976 41.605C310.84 41.605 312.183 41.93 313.006 42.58C313.83 43.1867 314.241 44.3783 314.241 46.155V60.845ZM353.596 57.4C353.596 60.78 352.903 63.7267 351.516 66.24C350.173 68.71 348.266 70.6167 345.796 71.96C343.326 73.3033 340.423 73.975 337.086 73.975C333.793 73.975 330.89 73.325 328.376 72.025C325.906 70.6817 323.978 68.775 322.591 66.305C321.248 63.7917 320.576 60.8233 320.576 57.4C320.576 53.9767 321.27 51.0517 322.656 48.625C324.043 46.155 325.971 44.2483 328.441 42.905C330.955 41.5183 333.836 40.825 337.086 40.825C340.38 40.825 343.261 41.5183 345.731 42.905C348.201 44.2483 350.13 46.1767 351.516 48.69C352.903 51.16 353.596 54.0633 353.596 57.4ZM337.086 48.43C335.05 48.43 333.425 49.21 332.211 50.77C331.041 52.33 330.456 54.54 330.456 57.4C330.456 60.3033 331.041 62.535 332.211 64.095C333.381 65.6117 335.006 66.37 337.086 66.37C339.166 66.37 340.791 65.59 341.961 64.03C343.131 62.47 343.716 60.26 343.716 57.4C343.716 54.5833 343.131 52.395 341.961 50.835C340.791 49.2317 339.166 48.43 337.086 48.43ZM391.512 43.23C391.989 43.0133 392.66 42.7967 393.527 42.58C394.437 42.32 395.347 42.19 396.257 42.19C397.86 42.19 399.182 42.4283 400.222 42.905C401.305 43.3817 401.977 44.0967 402.237 45.05C402.974 47.6067 403.645 49.9467 404.252 52.07C404.859 54.1933 405.444 56.2517 406.007 58.245C406.614 60.195 407.199 62.2533 407.762 64.42H408.022C408.629 60.8233 409.17 57.3783 409.647 54.085C410.124 50.7917 410.579 47.5417 411.012 44.335C411.445 41.1283 411.857 37.835 412.247 34.455C413.677 33.675 415.15 33.285 416.667 33.285C418.097 33.285 419.31 33.5883 420.307 34.195C421.304 34.8017 421.802 35.82 421.802 37.25C421.802 38.2033 421.694 39.5467 421.477 41.28C421.304 42.97 421.044 44.92 420.697 47.13C420.35 49.34 419.939 51.6367 419.462 54.02C419.029 56.4033 418.552 58.7433 418.032 61.04C417.512 63.2933 416.992 65.3517 416.472 67.215C415.952 69.035 415.454 70.5083 414.977 71.635C414.414 72.1117 413.504 72.545 412.247 72.935C410.99 73.2817 409.669 73.455 408.282 73.455C406.549 73.455 405.054 73.2167 403.797 72.74C402.54 72.22 401.782 71.5267 401.522 70.66C401.089 69.4033 400.59 67.93 400.027 66.24C399.507 64.55 398.965 62.7083 398.402 60.715C397.839 58.6783 397.275 56.5983 396.712 54.475C396.235 56.555 395.715 58.6783 395.152 60.845C394.589 62.9683 394.047 64.9617 393.527 66.825C393.007 68.6883 392.53 70.2917 392.097 71.635C391.534 72.1117 390.667 72.545 389.497 72.935C388.37 73.2817 387.114 73.455 385.727 73.455C384.08 73.455 382.564 73.195 381.177 72.675C379.79 72.155 378.902 71.4833 378.512 70.66C378.079 69.6633 377.559 68.1683 376.952 66.175C376.389 64.1383 375.782 61.82 375.132 59.22C374.525 56.5767 373.94 53.825 373.377 50.965C372.814 48.105 372.294 45.3317 371.817 42.645C371.34 39.915 370.972 37.4667 370.712 35.3C371.275 34.8233 372.012 34.3683 372.922 33.935C373.875 33.5017 374.915 33.285 376.042 33.285C377.472 33.285 378.642 33.61 379.552 34.26C380.462 34.8667 381.047 35.9283 381.307 37.445C382 41.4317 382.564 44.855 382.997 47.715C383.474 50.575 383.864 53.0233 384.167 55.06C384.514 57.0967 384.817 58.8733 385.077 60.39C385.337 61.8633 385.597 63.2067 385.857 64.42H386.182C386.615 62.6433 387.027 60.9967 387.417 59.48C387.807 57.92 388.219 56.36 388.652 54.8C389.085 53.1967 389.54 51.485 390.017 49.665C390.494 47.8017 390.992 45.6567 391.512 43.23ZM431.673 61.95L431.283 55.45L447.403 52.915C447.317 51.7017 446.797 50.575 445.843 49.535C444.89 48.495 443.482 47.975 441.618 47.975C439.668 47.975 438.043 48.6467 436.743 49.99C435.443 51.29 434.75 53.1533 434.663 55.58L434.988 60.065C435.378 62.4483 436.397 64.16 438.043 65.2C439.69 66.1967 441.64 66.695 443.893 66.695C445.713 66.695 447.425 66.435 449.028 65.915C450.632 65.395 451.932 64.8533 452.928 64.29C453.578 64.68 454.098 65.2217 454.488 65.915C454.922 66.6083 455.138 67.345 455.138 68.125C455.138 69.425 454.618 70.5083 453.578 71.375C452.582 72.2417 451.173 72.8917 449.353 73.325C447.577 73.7583 445.54 73.975 443.243 73.975C439.907 73.975 436.895 73.3467 434.208 72.09C431.565 70.8333 429.485 68.9483 427.968 66.435C426.452 63.9217 425.693 60.78 425.693 57.01C425.693 54.2367 426.127 51.8317 426.993 49.795C427.903 47.7583 429.095 46.09 430.568 44.79C432.085 43.4467 433.775 42.45 435.638 41.8C437.545 41.15 439.517 40.825 441.553 40.825C444.543 40.825 447.143 41.4317 449.353 42.645C451.607 43.815 453.362 45.4183 454.618 47.455C455.875 49.4917 456.503 51.8533 456.503 54.54C456.503 55.8833 456.135 56.9017 455.398 57.595C454.662 58.2883 453.643 58.7217 452.343 58.895L431.673 61.95ZM478.928 40.825C481.745 40.825 484.301 41.4533 486.598 42.71C488.895 43.9233 490.715 45.765 492.058 48.235C493.401 50.6617 494.073 53.6733 494.073 57.27C494.073 60.91 493.358 63.965 491.928 66.435C490.541 68.905 488.57 70.79 486.013 72.09C483.456 73.3467 480.466 73.975 477.043 73.975C474.356 73.975 472.038 73.65 470.088 73C468.181 72.35 466.578 71.5917 465.278 70.725C464.368 70.075 463.675 69.36 463.198 68.58C462.765 67.8 462.548 66.89 462.548 65.85V45.245H472.103V65.135C472.623 65.4383 473.295 65.72 474.118 65.98C474.941 66.24 475.873 66.37 476.913 66.37C479.123 66.37 480.878 65.6117 482.178 64.095C483.521 62.5783 484.193 60.3033 484.193 57.27C484.193 54.1933 483.543 51.9617 482.243 50.575C480.986 49.145 479.296 48.43 477.173 48.43C475.786 48.43 474.551 48.69 473.468 49.21C472.385 49.73 471.453 50.315 470.673 50.965L470.413 43.165C471.41 42.6017 472.623 42.0817 474.053 41.605C475.526 41.085 477.151 40.825 478.928 40.825ZM472.168 47.52H462.548V30.685C462.938 30.555 463.523 30.425 464.303 30.295C465.083 30.165 465.928 30.1 466.838 30.1C468.701 30.1 470.045 30.425 470.868 31.075C471.735 31.725 472.168 32.9167 472.168 34.65V47.52ZM525.408 63.9C525.408 67.0633 524.216 69.555 521.833 71.375C519.45 73.1517 515.983 74.04 511.433 74.04C507.88 74.04 504.955 73.52 502.658 72.48C500.361 71.44 499.213 69.9017 499.213 67.865C499.213 66.955 499.408 66.175 499.798 65.525C500.188 64.8317 500.686 64.29 501.293 63.9C502.506 64.5933 503.915 65.2433 505.518 65.85C507.165 66.4133 509.028 66.695 511.108 66.695C514.271 66.695 515.853 65.785 515.853 63.965C515.853 63.185 515.571 62.5783 515.008 62.145C514.445 61.6683 513.513 61.3217 512.213 61.105L509.483 60.455C506.016 59.7183 503.416 58.5917 501.683 57.075C499.993 55.515 499.148 53.3917 499.148 50.705C499.148 47.6717 500.361 45.2667 502.788 43.49C505.258 41.67 508.573 40.76 512.733 40.76C514.813 40.76 516.698 40.9767 518.388 41.41C520.121 41.8 521.486 42.4283 522.483 43.295C523.48 44.1183 523.978 45.1583 523.978 46.415C523.978 47.2817 523.805 48.04 523.458 48.69C523.111 49.34 522.656 49.8817 522.093 50.315C521.616 50.0117 520.88 49.6867 519.883 49.34C518.93 48.9933 517.868 48.7117 516.698 48.495C515.571 48.2783 514.51 48.17 513.513 48.17C511.953 48.17 510.74 48.3867 509.873 48.82C509.006 49.21 508.573 49.8383 508.573 50.705C508.573 51.2683 508.811 51.7667 509.288 52.2C509.808 52.59 510.696 52.915 511.953 53.175L514.553 53.825C518.41 54.6917 521.183 55.9483 522.873 57.595C524.563 59.1983 525.408 61.3 525.408 63.9ZM531.092 32.83C531.092 31.3567 531.59 30.1217 532.587 29.125C533.627 28.1283 534.927 27.63 536.487 27.63C538.09 27.63 539.39 28.1283 540.387 29.125C541.384 30.1217 541.882 31.3567 541.882 32.83C541.882 34.26 541.384 35.495 540.387 36.535C539.39 37.575 538.09 38.095 536.487 38.095C534.927 38.095 533.627 37.575 532.587 36.535C531.59 35.495 531.092 34.26 531.092 32.83ZM531.677 55.84H541.297V72.935C540.907 73.065 540.322 73.1733 539.542 73.26C538.762 73.39 537.917 73.455 537.007 73.455C535.144 73.455 533.779 73.13 532.912 72.48C532.089 71.83 531.677 70.66 531.677 68.97V55.84ZM541.297 60.845H531.677V42.19C532.067 42.06 532.652 41.93 533.432 41.8C534.255 41.67 535.122 41.605 536.032 41.605C537.895 41.605 539.239 41.93 540.062 42.58C540.885 43.1867 541.297 44.3783 541.297 46.155V60.845ZM549.192 55.84H558.747V62.795C558.747 64.0083 559.137 64.8967 559.917 65.46C560.697 66.0233 561.802 66.305 563.232 66.305C563.882 66.305 564.575 66.24 565.312 66.11C566.092 65.9367 566.742 65.7417 567.262 65.525C567.609 65.915 567.912 66.3917 568.172 66.955C568.475 67.5183 568.627 68.1683 568.627 68.905C568.627 70.3783 568.02 71.5917 566.807 72.545C565.594 73.4983 563.557 73.975 560.697 73.975C557.057 73.975 554.219 73.1517 552.182 71.505C550.189 69.8583 549.192 67.1717 549.192 63.445V55.84ZM555.302 49.925V42.515H567.782C567.999 42.8617 568.215 43.36 568.432 44.01C568.649 44.66 568.757 45.375 568.757 46.155C568.757 47.455 568.454 48.4083 567.847 49.015C567.284 49.6217 566.504 49.925 565.507 49.925H555.302ZM558.747 57.465H549.192V34.13C549.625 34 550.232 33.87 551.012 33.74C551.792 33.5667 552.615 33.48 553.482 33.48C555.345 33.48 556.689 33.805 557.512 34.455C558.335 35.105 558.747 36.2967 558.747 38.03V57.465ZM578.622 61.95L578.232 55.45L594.352 52.915C594.265 51.7017 593.745 50.575 592.792 49.535C591.838 48.495 590.43 47.975 588.567 47.975C586.617 47.975 584.992 48.6467 583.692 49.99C582.392 51.29 581.698 53.1533 581.612 55.58L581.937 60.065C582.327 62.4483 583.345 64.16 584.992 65.2C586.638 66.1967 588.588 66.695 590.842 66.695C592.662 66.695 594.373 66.435 595.977 65.915C597.58 65.395 598.88 64.8533 599.877 64.29C600.527 64.68 601.047 65.2217 601.437 65.915C601.87 66.6083 602.087 67.345 602.087 68.125C602.087 69.425 601.567 70.5083 600.527 71.375C599.53 72.2417 598.122 72.8917 596.302 73.325C594.525 73.7583 592.488 73.975 590.192 73.975C586.855 73.975 583.843 73.3467 581.157 72.09C578.513 70.8333 576.433 68.9483 574.917 66.435C573.4 63.9217 572.642 60.78 572.642 57.01C572.642 54.2367 573.075 51.8317 573.942 49.795C574.852 47.7583 576.043 46.09 577.517 44.79C579.033 43.4467 580.723 42.45 582.587 41.8C584.493 41.15 586.465 40.825 588.502 40.825C591.492 40.825 594.092 41.4317 596.302 42.645C598.555 43.815 600.31 45.4183 601.567 47.455C602.823 49.4917 603.452 51.8533 603.452 54.54C603.452 55.8833 603.083 56.9017 602.347 57.595C601.61 58.2883 600.592 58.7217 599.292 58.895L578.622 61.95Z" fill="white"/>
</svg>
